<svg xmlns="http://www.w3.org/2000/svg" width="560" height="320" viewBox="0 0 560 320" fill="none" aria-hidden="true">
  <defs>
    <linearGradient id="g1" x1="0%" y1="0%" x2="100%" y2="100%">
      <stop offset="0%" style="stop-color:#6366f1;stop-opacity:0.35" />
      <stop offset="50%" style="stop-color:#8b5cf6;stop-opacity:0.2" />
      <stop offset="100%" style="stop-color:#db2777;stop-opacity:0.15" />
    </linearGradient>
    <linearGradient id="g2" x1="0%" y1="100%" x2="100%" y2="0%">
      <stop offset="0%" style="stop-color:#1c1c2e;stop-opacity:0.9" />
      <stop offset="100%" style="stop-color:#242838;stop-opacity:0.85" />
    </linearGradient>
    <filter id="blur" x="-20%" y="-20%" width="140%" height="140%">
      <feGaussianBlur stdDeviation="12" />
    </filter>
  </defs>
  <ellipse cx="400" cy="60" rx="180" ry="100" fill="url(#g1)" filter="url(#blur)" opacity="0.9" />
  <g transform="translate(48 36) rotate(-8 220 120)">
    <rect x="0" y="0" width="340" height="230" rx="14" fill="url(#g2)" stroke="rgba(255,255,255,0.12)" stroke-width="1" />
    <rect x="0" y="0" width="340" height="34" rx="14" fill="rgba(255,255,255,0.04)" />
    <rect x="0" y="20" width="340" height="14" fill="transparent" />
    <circle cx="22" cy="17" r="5" fill="rgba(255,255,255,0.12)" />
    <circle cx="38" cy="17" r="5" fill="rgba(255,255,255,0.08)" />
    <circle cx="54" cy="17" r="5" fill="rgba(255,255,255,0.06)" />
    <rect x="14" y="48" width="56" height="170" rx="6" fill="rgba(0,0,0,0.25)" />
    <rect x="22" y="60" width="40" height="5" rx="2" fill="rgba(255,255,255,0.1)" />
    <rect x="22" y="72" width="32" height="5" rx="2" fill="rgba(255,255,255,0.06)" />
    <rect x="26" y="84" width="36" height="5" rx="2" fill="rgba(255,255,255,0.06)" />
    <rect x="78" y="48" width="248" height="170" rx="6" fill="rgba(0,0,0,0.2)" />
    <rect x="92" y="64" width="200" height="6" rx="2" fill="rgba(99,102,241,0.35)" />
    <rect x="92" y="82" width="160" height="5" rx="2" fill="rgba(255,255,255,0.08)" />
    <rect x="92" y="96" width="120" height="5" rx="2" fill="rgba(255,255,255,0.05)" />
    <rect x="92" y="118" width="180" height="5" rx="2" fill="rgba(255,255,255,0.08)" />
    <rect x="92" y="132" width="200" height="6" rx="2" fill="rgba(56,189,248,0.18)" />
  </g>
  <g transform="translate(260 120) rotate(10 80 70)">
    <rect x="0" y="0" width="200" height="150" rx="12" fill="rgba(36,40,52,0.92)" stroke="rgba(255,255,255,0.1)" stroke-width="1" />
    <rect x="0" y="0" width="200" height="30" rx="12" fill="rgba(255,255,255,0.05)" />
    <rect x="14" y="44" width="140" height="36" rx="8" fill="rgba(99,102,241,0.18)" stroke="rgba(99,102,241,0.2)" />
    <rect x="14" y="90" width="170" height="10" rx="3" fill="rgba(255,255,255,0.06)" />
    <rect x="14" y="108" width="150" height="10" rx="3" fill="rgba(255,255,255,0.05)" />
    <rect x="14" y="126" width="100" height="10" rx="3" fill="rgba(255,255,255,0.04)" />
    <rect x="14" y="146" width="172" height="28" rx="6" fill="rgba(0,0,0,0.35)" stroke="rgba(255,255,255,0.08)" />
  </g>
</svg>
